<svg xmlns="http://www.w3.org/2000/svg" version="1.1" xmlns:xlink="http://www.w3.org/1999/xlink" xmlns:svgjs="http://svgjs.dev/svgjs" width="1440" height="560" preserveAspectRatio="none" viewBox="0 0 1440 560"><g mask="url(&quot;#SvgjsMask1020&quot;)" fill="none"><rect width="1440" height="560" x="0" y="0" fill="url(&quot;#SvgjsLinearGradient1021&quot;)"></rect><path d="M1440 0L720.86 0L1440 109.41z" fill="rgba(255, 255, 255, .1)"></path><path d="M720.86 0L1440 109.41L1440 178.5L374.59000000000003 0z" fill="rgba(255, 255, 255, .075)"></path><path d="M374.59000000000015 0L1440 178.5L1440 404.83000000000004L191.91000000000014 0z" fill="rgba(255, 255, 255, .05)"></path><path d="M191.91000000000008 0L1440 404.83000000000004L1440 504.72L132.23000000000008 0z" fill="rgba(255, 255, 255, .025)"></path><path d="M0 560L550.47 560L0 542.73z" fill="rgba(0, 0, 0, .1)"></path><path d="M0 542.73L550.47 560L742.29 560L0 253.61z" fill="rgba(0, 0, 0, .075)"></path><path d="M0 253.61L742.29 560L805.4699999999999 560L0 252.81z" fill="rgba(0, 0, 0, .05)"></path><path d="M0 252.81L805.4699999999999 560L878.1199999999999 560L0 152.07z" fill="rgba(0, 0, 0, .025)"></path></g><defs><mask id="SvgjsMask1020"><rect width="1440" height="560" fill="#ffffff"></rect></mask><linearGradient x1="15.28%" y1="-39.29%" x2="84.72%" y2="139.29%" gradientUnits="userSpaceOnUse" id="SvgjsLinearGradient1021"><stop stop-color="#0e2a47" offset="0"></stop><stop stop-color="rgba(56, 142, 60, 1)" offset="1"></stop></linearGradient></defs></svg>